<svg width="17" height="17" viewBox="0 0 17 17" fill="none" xmlns="http://www.w3.org/2000/svg">
<path d="M9.99744 6.80112L6.66391 10.1346C6.23569 9.70643 5.97217 9.12009 5.97217 8.46788C5.97217 7.16346 7.02625 6.10938 8.33067 6.10938C8.98289 6.10938 9.56922 6.3729 9.99744 6.80112Z" stroke="currentColor" stroke-width="0.988201" stroke-linecap="round" stroke-linejoin="round"/>
<path d="M12.1649 4.36348C11.012 3.49387 9.69436 3.01953 8.33064 3.01953C6.00507 3.01953 3.83762 4.38984 2.32897 6.76152C1.73605 7.69043 1.73605 9.25178 2.32897 10.1807C2.84942 10.9976 3.45552 11.7025 4.11432 12.2691" stroke="currentColor" stroke-width="0.988201" stroke-linecap="round" stroke-linejoin="round"/>
<path d="M5.97217 13.4292C6.7232 13.7454 7.52035 13.9167 8.33067 13.9167C10.6562 13.9167 12.8237 12.5464 14.3323 10.1747C14.9253 9.24581 14.9253 7.68445 14.3323 6.75555C14.1149 6.41297 13.8778 6.09016 13.634 5.78711" stroke="currentColor" stroke-width="0.988201" stroke-linecap="round" stroke-linejoin="round"/>
<path d="M10.6435 8.92969C10.4722 9.8586 9.71455 10.6162 8.78564 10.7875" stroke="currentColor" stroke-width="0.988201" stroke-linecap="round" stroke-linejoin="round"/>
</svg>
