<svg width="24" height="24" viewBox="0 0 24 24" xmlns="http://www.w3.org/2000/svg">
<path d="M10 10C10.2652 10 10.5195 10.1054 10.707 10.293C10.8946 10.4805 11 10.7348 11 11V17C11 17.2652 10.8946 17.5195 10.707 17.707C10.5195 17.8946 10.2652 18 10 18C9.73478 18 9.4805 17.8946 9.29297 17.707C9.10543 17.5195 9 17.2652 9 17V11C9 10.7348 9.10543 10.4805 9.29297 10.293C9.4805 10.1054 9.73478 10 10 10Z" />
<path d="M14 10C14.2652 10 14.5195 10.1054 14.707 10.293C14.8946 10.4805 15 10.7348 15 11V17C15 17.2652 14.8946 17.5195 14.707 17.707C14.5195 17.8946 14.2652 18 14 18C13.7348 18 13.4805 17.8946 13.293 17.707C13.1054 17.5195 13 17.2652 13 17V11C13 10.7348 13.1054 10.4805 13.293 10.293C13.4805 10.1054 13.7348 10 14 10Z" />
<path fill-rule="evenodd" clip-rule="evenodd" d="M13 2C13.7956 2 14.5585 2.3163 15.1211 2.87891C15.6837 3.44152 16 4.20435 16 5V6H20C20.2652 6 20.5195 6.10543 20.707 6.29297C20.8946 6.4805 21 6.73478 21 7C21 7.26522 20.8946 7.5195 20.707 7.70703C20.5195 7.89457 20.2652 8 20 8H19V19C19 19.7956 18.6837 20.5585 18.1211 21.1211C17.5585 21.6837 16.7956 22 16 22H8C7.20435 22 6.44152 21.6837 5.87891 21.1211C5.3163 20.5585 5 19.7956 5 19V8H4C3.73478 8 3.48051 7.89457 3.29297 7.70703C3.10543 7.5195 3 7.26522 3 7C3 6.73478 3.10543 6.4805 3.29297 6.29297C3.48051 6.10543 3.73478 6 4 6H8V5C8 4.20435 8.3163 3.44152 8.87891 2.87891C9.44152 2.3163 10.2044 2 11 2H13ZM7 8V19C7 19.2652 7.10543 19.5195 7.29297 19.707C7.4805 19.8946 7.73478 20 8 20H16C16.2652 20 16.5195 19.8946 16.707 19.707C16.8946 19.5195 17 19.2652 17 19V8H7ZM11 4C10.7348 4 10.4805 4.10543 10.293 4.29297C10.1054 4.48051 10 4.73478 10 5V6H14V5C14 4.73478 13.8946 4.48051 13.707 4.29297C13.5195 4.10543 13.2652 4 13 4H11Z" />
</svg>
